<mxfile host="app.diagrams.net" modified="2024-06-03T17:20:25.362Z" agent="Mozilla/5.0 (Windows NT 10.0; Win64; x64) AppleWebKit/537.36 (KHTML, like Gecko) Chrome/125.0.0.0 Safari/537.36" etag="T6H9-SLOVDJcwmxCRE9X" version="24.4.13" type="device">
  <diagram name="Сторінка-1" id="1z2CHGYYNt6JW6x3BTb-">
    <mxGraphModel dx="1434" dy="780" grid="1" gridSize="10" guides="1" tooltips="1" connect="1" arrows="1" fold="1" page="1" pageScale="1" pageWidth="827" pageHeight="1169" math="0" shadow="0">
      <root>
        <mxCell id="0" />
        <mxCell id="1" parent="0" />
        <mxCell id="k83ZnwwLvd-thZsYvjrC-5" value="&lt;p style=&quot;margin:0px;margin-top:4px;text-align:center;&quot;&gt;&lt;i&gt;&amp;lt;&amp;lt;IHeroBuilder&amp;gt;&amp;gt;&lt;/i&gt;&lt;br&gt;&lt;b&gt;Interface&lt;/b&gt;&lt;/p&gt;&lt;hr size=&quot;1&quot; style=&quot;border-style:solid;&quot;&gt;&lt;p style=&quot;margin:0px;margin-left:4px;&quot;&gt;SetHeight(string):&amp;nbsp;&lt;i style=&quot;text-align: center;&quot;&gt;IHeroBuilder&lt;/i&gt;&lt;br&gt;SetClothing(string):&amp;nbsp;&lt;i style=&quot;background-color: initial; text-align: center;&quot;&gt;IHeroBuilder&lt;/i&gt;&lt;/p&gt;&lt;p style=&quot;margin:0px;margin-left:4px;&quot;&gt;SetHairColor(string):&amp;nbsp;&lt;i style=&quot;background-color: initial; text-align: center;&quot;&gt;IHeroBuilder&lt;/i&gt;&lt;br&gt;&lt;/p&gt;&lt;p style=&quot;margin:0px;margin-left:4px;&quot;&gt;SetInventory(string):&amp;nbsp;&lt;i style=&quot;background-color: initial; text-align: center;&quot;&gt;IHeroBuilder&lt;/i&gt;&lt;/p&gt;&lt;p style=&quot;margin:0px;margin-left:4px;&quot;&gt;&lt;i style=&quot;background-color: initial; text-align: center;&quot;&gt;Build(): Hero&lt;/i&gt;&lt;/p&gt;&lt;hr size=&quot;1&quot; style=&quot;border-style:solid;&quot;&gt;&lt;p style=&quot;margin:0px;margin-left:4px;&quot;&gt;+ method1(Type): Type&lt;br&gt;+ method2(Type, Type): Type&lt;/p&gt;" style="verticalAlign=top;align=left;overflow=fill;html=1;whiteSpace=wrap;" vertex="1" parent="1">
          <mxGeometry x="310" y="20" width="190" height="120" as="geometry" />
        </mxCell>
        <mxCell id="k83ZnwwLvd-thZsYvjrC-14" style="edgeStyle=orthogonalEdgeStyle;rounded=0;orthogonalLoop=1;jettySize=auto;html=1;exitX=0.5;exitY=0;exitDx=0;exitDy=0;endArrow=block;endFill=0;dashed=1;" edge="1" parent="1" source="k83ZnwwLvd-thZsYvjrC-6" target="k83ZnwwLvd-thZsYvjrC-5">
          <mxGeometry relative="1" as="geometry" />
        </mxCell>
        <mxCell id="k83ZnwwLvd-thZsYvjrC-6" value="HeroBuilder" style="swimlane;fontStyle=1;align=center;verticalAlign=top;childLayout=stackLayout;horizontal=1;startSize=26;horizontalStack=0;resizeParent=1;resizeParentMax=0;resizeLast=0;collapsible=1;marginBottom=0;whiteSpace=wrap;html=1;" vertex="1" parent="1">
          <mxGeometry x="140" y="190" width="200" height="140" as="geometry" />
        </mxCell>
        <mxCell id="k83ZnwwLvd-thZsYvjrC-7" value="- hero: Hero" style="text;strokeColor=none;fillColor=none;align=left;verticalAlign=top;spacingLeft=4;spacingRight=4;overflow=hidden;rotatable=0;points=[[0,0.5],[1,0.5]];portConstraint=eastwest;whiteSpace=wrap;html=1;" vertex="1" parent="k83ZnwwLvd-thZsYvjrC-6">
          <mxGeometry y="26" width="200" height="26" as="geometry" />
        </mxCell>
        <mxCell id="k83ZnwwLvd-thZsYvjrC-8" value="" style="line;strokeWidth=1;fillColor=none;align=left;verticalAlign=middle;spacingTop=-1;spacingLeft=3;spacingRight=3;rotatable=0;labelPosition=right;points=[];portConstraint=eastwest;strokeColor=inherit;" vertex="1" parent="k83ZnwwLvd-thZsYvjrC-6">
          <mxGeometry y="52" width="200" height="8" as="geometry" />
        </mxCell>
        <mxCell id="k83ZnwwLvd-thZsYvjrC-9" value="&lt;p style=&quot;margin: 0px 0px 0px 4px;&quot;&gt;SetHeight(string):&amp;nbsp;&lt;i style=&quot;text-align: center;&quot;&gt;IHeroBuilder&lt;/i&gt;&lt;br&gt;SetClothing(string):&amp;nbsp;&lt;i style=&quot;background-color: initial; text-align: center;&quot;&gt;IHeroBuilder&lt;/i&gt;&lt;/p&gt;&lt;p style=&quot;margin: 0px 0px 0px 4px;&quot;&gt;SetHairColor(string):&amp;nbsp;&lt;i style=&quot;background-color: initial; text-align: center;&quot;&gt;IHeroBuilder&lt;/i&gt;&lt;br&gt;&lt;/p&gt;&lt;p style=&quot;margin: 0px 0px 0px 4px;&quot;&gt;SetInventory(string):&amp;nbsp;&lt;i style=&quot;background-color: initial; text-align: center;&quot;&gt;IHeroBuilder&lt;/i&gt;&lt;/p&gt;&lt;p style=&quot;margin: 0px 0px 0px 4px;&quot;&gt;&lt;i style=&quot;background-color: initial; text-align: center;&quot;&gt;Build(): Hero&lt;/i&gt;&lt;/p&gt;" style="text;strokeColor=none;fillColor=none;align=left;verticalAlign=top;spacingLeft=4;spacingRight=4;overflow=hidden;rotatable=0;points=[[0,0.5],[1,0.5]];portConstraint=eastwest;whiteSpace=wrap;html=1;" vertex="1" parent="k83ZnwwLvd-thZsYvjrC-6">
          <mxGeometry y="60" width="200" height="80" as="geometry" />
        </mxCell>
        <mxCell id="k83ZnwwLvd-thZsYvjrC-15" style="edgeStyle=orthogonalEdgeStyle;rounded=0;orthogonalLoop=1;jettySize=auto;html=1;exitX=0.5;exitY=0;exitDx=0;exitDy=0;entryX=0.5;entryY=1;entryDx=0;entryDy=0;endArrow=block;endFill=0;dashed=1;" edge="1" parent="1" source="k83ZnwwLvd-thZsYvjrC-10" target="k83ZnwwLvd-thZsYvjrC-5">
          <mxGeometry relative="1" as="geometry" />
        </mxCell>
        <mxCell id="k83ZnwwLvd-thZsYvjrC-27" style="edgeStyle=orthogonalEdgeStyle;rounded=0;orthogonalLoop=1;jettySize=auto;html=1;exitX=0.5;exitY=0;exitDx=0;exitDy=0;" edge="1" parent="1" source="k83ZnwwLvd-thZsYvjrC-10" target="k83ZnwwLvd-thZsYvjrC-20">
          <mxGeometry relative="1" as="geometry" />
        </mxCell>
        <mxCell id="k83ZnwwLvd-thZsYvjrC-10" value="EnemyBuilder" style="swimlane;fontStyle=1;align=center;verticalAlign=top;childLayout=stackLayout;horizontal=1;startSize=26;horizontalStack=0;resizeParent=1;resizeParentMax=0;resizeLast=0;collapsible=1;marginBottom=0;whiteSpace=wrap;html=1;" vertex="1" parent="1">
          <mxGeometry x="450" y="190" width="200" height="140" as="geometry" />
        </mxCell>
        <mxCell id="k83ZnwwLvd-thZsYvjrC-11" value="- hero: Hero" style="text;strokeColor=none;fillColor=none;align=left;verticalAlign=top;spacingLeft=4;spacingRight=4;overflow=hidden;rotatable=0;points=[[0,0.5],[1,0.5]];portConstraint=eastwest;whiteSpace=wrap;html=1;" vertex="1" parent="k83ZnwwLvd-thZsYvjrC-10">
          <mxGeometry y="26" width="200" height="26" as="geometry" />
        </mxCell>
        <mxCell id="k83ZnwwLvd-thZsYvjrC-12" value="" style="line;strokeWidth=1;fillColor=none;align=left;verticalAlign=middle;spacingTop=-1;spacingLeft=3;spacingRight=3;rotatable=0;labelPosition=right;points=[];portConstraint=eastwest;strokeColor=inherit;" vertex="1" parent="k83ZnwwLvd-thZsYvjrC-10">
          <mxGeometry y="52" width="200" height="8" as="geometry" />
        </mxCell>
        <mxCell id="k83ZnwwLvd-thZsYvjrC-13" value="&lt;p style=&quot;margin: 0px 0px 0px 4px;&quot;&gt;SetHeight(string):&amp;nbsp;&lt;i style=&quot;text-align: center;&quot;&gt;IHeroBuilder&lt;/i&gt;&lt;br&gt;SetClothing(string):&amp;nbsp;&lt;i style=&quot;background-color: initial; text-align: center;&quot;&gt;IHeroBuilder&lt;/i&gt;&lt;/p&gt;&lt;p style=&quot;margin: 0px 0px 0px 4px;&quot;&gt;SetHairColor(string):&amp;nbsp;&lt;i style=&quot;background-color: initial; text-align: center;&quot;&gt;IHeroBuilder&lt;/i&gt;&lt;br&gt;&lt;/p&gt;&lt;p style=&quot;margin: 0px 0px 0px 4px;&quot;&gt;SetInventory(string):&amp;nbsp;&lt;i style=&quot;background-color: initial; text-align: center;&quot;&gt;IHeroBuilder&lt;/i&gt;&lt;/p&gt;&lt;p style=&quot;margin: 0px 0px 0px 4px;&quot;&gt;&lt;i style=&quot;background-color: initial; text-align: center;&quot;&gt;Build(): Hero&lt;/i&gt;&lt;/p&gt;" style="text;strokeColor=none;fillColor=none;align=left;verticalAlign=top;spacingLeft=4;spacingRight=4;overflow=hidden;rotatable=0;points=[[0,0.5],[1,0.5]];portConstraint=eastwest;whiteSpace=wrap;html=1;" vertex="1" parent="k83ZnwwLvd-thZsYvjrC-10">
          <mxGeometry y="60" width="200" height="80" as="geometry" />
        </mxCell>
        <mxCell id="k83ZnwwLvd-thZsYvjrC-17" value="Hero" style="swimlane;fontStyle=1;align=center;verticalAlign=top;childLayout=stackLayout;horizontal=1;startSize=26;horizontalStack=0;resizeParent=1;resizeParentMax=0;resizeLast=0;collapsible=1;marginBottom=0;whiteSpace=wrap;html=1;" vertex="1" parent="1">
          <mxGeometry x="40" y="30" width="160" height="134" as="geometry" />
        </mxCell>
        <mxCell id="k83ZnwwLvd-thZsYvjrC-18" value="Height: string&lt;div&gt;Clothing: string&lt;/div&gt;&lt;div&gt;HairColor: string&lt;/div&gt;&lt;div&gt;Inventory: string&lt;/div&gt;" style="text;strokeColor=none;fillColor=none;align=left;verticalAlign=top;spacingLeft=4;spacingRight=4;overflow=hidden;rotatable=0;points=[[0,0.5],[1,0.5]];portConstraint=eastwest;whiteSpace=wrap;html=1;" vertex="1" parent="k83ZnwwLvd-thZsYvjrC-17">
          <mxGeometry y="26" width="160" height="74" as="geometry" />
        </mxCell>
        <mxCell id="k83ZnwwLvd-thZsYvjrC-19" value="" style="line;strokeWidth=1;fillColor=none;align=left;verticalAlign=middle;spacingTop=-1;spacingLeft=3;spacingRight=3;rotatable=0;labelPosition=right;points=[];portConstraint=eastwest;strokeColor=inherit;" vertex="1" parent="k83ZnwwLvd-thZsYvjrC-17">
          <mxGeometry y="100" width="160" height="8" as="geometry" />
        </mxCell>
        <mxCell id="k83ZnwwLvd-thZsYvjrC-20" value="GetInfo()" style="text;strokeColor=none;fillColor=none;align=left;verticalAlign=top;spacingLeft=4;spacingRight=4;overflow=hidden;rotatable=0;points=[[0,0.5],[1,0.5]];portConstraint=eastwest;whiteSpace=wrap;html=1;" vertex="1" parent="k83ZnwwLvd-thZsYvjrC-17">
          <mxGeometry y="108" width="160" height="26" as="geometry" />
        </mxCell>
        <mxCell id="k83ZnwwLvd-thZsYvjrC-21" value="Director" style="swimlane;fontStyle=0;childLayout=stackLayout;horizontal=1;startSize=26;fillColor=none;horizontalStack=0;resizeParent=1;resizeParentMax=0;resizeLast=0;collapsible=1;marginBottom=0;whiteSpace=wrap;html=1;" vertex="1" parent="1">
          <mxGeometry x="590" y="36" width="140" height="78" as="geometry" />
        </mxCell>
        <mxCell id="k83ZnwwLvd-thZsYvjrC-22" value="hero: Hero" style="text;strokeColor=none;fillColor=none;align=left;verticalAlign=top;spacingLeft=4;spacingRight=4;overflow=hidden;rotatable=0;points=[[0,0.5],[1,0.5]];portConstraint=eastwest;whiteSpace=wrap;html=1;" vertex="1" parent="k83ZnwwLvd-thZsYvjrC-21">
          <mxGeometry y="26" width="140" height="26" as="geometry" />
        </mxCell>
        <mxCell id="k83ZnwwLvd-thZsYvjrC-23" value="enemy: Hero" style="text;strokeColor=none;fillColor=none;align=left;verticalAlign=top;spacingLeft=4;spacingRight=4;overflow=hidden;rotatable=0;points=[[0,0.5],[1,0.5]];portConstraint=eastwest;whiteSpace=wrap;html=1;" vertex="1" parent="k83ZnwwLvd-thZsYvjrC-21">
          <mxGeometry y="52" width="140" height="26" as="geometry" />
        </mxCell>
        <mxCell id="k83ZnwwLvd-thZsYvjrC-25" style="edgeStyle=orthogonalEdgeStyle;rounded=0;orthogonalLoop=1;jettySize=auto;html=1;exitX=0;exitY=0.5;exitDx=0;exitDy=0;entryX=1;entryY=0.5;entryDx=0;entryDy=0;" edge="1" parent="1" source="k83ZnwwLvd-thZsYvjrC-22" target="k83ZnwwLvd-thZsYvjrC-5">
          <mxGeometry relative="1" as="geometry" />
        </mxCell>
        <mxCell id="k83ZnwwLvd-thZsYvjrC-26" style="edgeStyle=orthogonalEdgeStyle;rounded=0;orthogonalLoop=1;jettySize=auto;html=1;exitX=0.5;exitY=0;exitDx=0;exitDy=0;entryX=0.544;entryY=1;entryDx=0;entryDy=0;entryPerimeter=0;" edge="1" parent="1" source="k83ZnwwLvd-thZsYvjrC-6" target="k83ZnwwLvd-thZsYvjrC-20">
          <mxGeometry relative="1" as="geometry" />
        </mxCell>
      </root>
    </mxGraphModel>
  </diagram>
</mxfile>
